<svg xmlns="http://www.w3.org/2000/svg" width="10" height="13" style=""><rect id="backgroundrect" width="100%" height="100%" x="0" y="0" fill="none" stroke="none"/><g class="currentLayer" style=""><title>Layer 1</title><path d="M4.5511841945648195,0.4550000305175781 v10.805 L0.7631841945648192,7.8480000305175786 a0.457,0.457 0 1 0 -0.6100000000000001,0.6830000000000002 l4.549,4.093 l0.018000000000000002,0.014000000000000002 l0.025000000000000005,0.020000000000000004 l0.020000000000000004,0.014000000000000002 l0.030000000000000006,0.018000000000000002 l0.027000000000000007,0.014000000000000002 H4.963184194564819 c0.011000000000000003,0 0.020000000000000004,0.03200000000000001 0.04300000000000001,0.03200000000000001 c0.023000000000000007,0 0,0 0,0 h0.17300000000000001 l0.027000000000000007,-0.014000000000000002 l0.030000000000000006,-0.018000000000000002 l0.020000000000000004,-0.014000000000000002 l0.025000000000000005,-0.020000000000000004 l0.019000000000000003,-0.014000000000000002 l4.548,-4.093 a0.457,0.457 0 0 0 -0.6100000000000001,-0.6830000000000002 l-3.777,3.38 V0.4550000305175781 a0.455,0.455 0 0 0 -0.91,0 z" fill="#000" fill-rule="nonzero" stroke="#000" id="svg_1" class=""/></g></svg>