<svg width="148" height="126" xmlns="http://www.w3.org/2000/svg"><path d="M145.418 82.128a2.414 2.414 0 0 1 2.421 2.405v3.66c0 5.55-4.546 10.067-10.132 10.067h-24.804v18.989c0 4.46-3.651 8.088-8.14 8.088H87.31c-4.483 0-8.133-3.628-8.133-8.088v-2.7H42.423c-4.193 0-7.598-3.39-7.598-7.55v-8.74H10.74C5.153 98.26.607 93.744.607 88.193v-3.658a2.414 2.414 0 0 1 2.42-2.406h1.678v-74C4.705 3.804 8.242.29 12.593.29h123.253c4.351 0 7.895 3.515 7.895 7.837v74.001h1.677zm-6.52-74c0-1.667-1.368-3.026-3.051-3.026H75.31c.088.044.177.081.252.131.126.082.259.194.372.313.114.113.208.226.29.351.101.138.177.27.227.414.063.144.114.307.145.45.038.164.05.32.05.483 0 .144-.018.301-.05.464a2.099 2.099 0 0 1-.145.45c-.05.139-.132.29-.227.414a2.028 2.028 0 0 1-.29.37 2.278 2.278 0 0 1-.372.288c-.069.05-.151.082-.227.12h56.792a2.414 2.414 0 0 1 2.421 2.405l.007 65.637a2.414 2.414 0 0 1-2.422 2.406h-19.23v2.33h25.995v-74zm-9.193 6.032H18.733v60.826h16.091v-38.34c0-4.16 3.411-7.55 7.598-7.55h44.282c4.186 0 7.598 3.39 7.598 7.55v29.72l10.46.006c4.49 0 8.14 3.627 8.14 8.088v.526h16.803V14.16zM89.458 39.92v-3.276a2.75 2.75 0 0 0-2.755-2.738H42.421a2.75 2.75 0 0 0-2.755 2.738v3.277h49.792zm15.303 31.262H87.308a3.289 3.289 0 0 0-3.292 3.276v2.418h24.043v-2.418c0-1.81-1.482-3.276-3.298-3.276zm-65.095-26.45v54.49l39.51.007v-24.77c0-4.461 3.644-8.089 8.133-8.089h2.15V44.732H39.666zm44.352 36.95v28.33h24.042v-28.33H84.018zM9.547 8.127v74h25.278v-2.33H16.313a2.414 2.414 0 0 1-2.421-2.406V11.754a2.414 2.414 0 0 1 2.42-2.405l56.767-.007a2.275 2.275 0 0 1-.574-.407 2.424 2.424 0 0 1-.706-1.698c0-.163.019-.32.05-.482.032-.144.082-.3.132-.451.064-.138.145-.27.227-.414.095-.125.19-.238.303-.35.183-.188.404-.326.637-.44H12.592c-1.677 0-3.045 1.36-3.045 3.027zm1.185 85.314l24.092-.006v-6.503H5.442v1.253c0 2.9 2.37 5.256 5.29 5.256zm31.69 16.288h36.754v-5.695H39.667v2.957a2.75 2.75 0 0 0 2.755 2.738zm62.34 10.788h.001c1.816 0 3.298-1.472 3.298-3.276v-2.419H84.018v2.419a3.285 3.285 0 0 0 3.292 3.276h17.452zm38.235-32.332l.001-1.247h-30.095v6.503h24.804c2.92 0 5.29-2.356 5.29-5.256zm-76.394 16.998a2.392 2.392 0 0 1 0 3.395 2.46 2.46 0 0 1-1.715.708 2.39 2.39 0 0 1-1.709-.708 2.381 2.381 0 0 1-.712-1.698c0-.156.019-.3.05-.463a1.77 1.77 0 0 1 .126-.451c.063-.138.145-.288.227-.414.082-.131.196-.257.31-.37.888-.895 2.515-.895 3.423 0zM51.666 75.63a2.44 2.44 0 0 1-1.709-.702 2.394 2.394 0 0 1 0-3.401l14.149-14.059a2.431 2.431 0 0 1 3.424 0c.945.94.945 2.462 0 3.402L53.38 74.93a2.466 2.466 0 0 1-1.714.702zm25.726-17.066c.945.94.945 2.462 0 3.402L53.854 85.36a2.466 2.466 0 0 1-1.715.702 2.417 2.417 0 0 1-1.715-.702 2.394 2.394 0 0 1 0-3.402l23.544-23.393a2.431 2.431 0 0 1 3.424 0zm20.882 58.181c.063.144.094.307.126.451.038.163.05.32.05.483a2.416 2.416 0 0 1-2.421 2.406c-.145 0-.303-.02-.466-.05a2.132 2.132 0 0 1-.454-.145 2.233 2.233 0 0 1-.417-.225 1.507 1.507 0 0 1-.365-.295 2.268 2.268 0 0 1-.29-.37c-.101-.125-.164-.269-.227-.413a2.099 2.099 0 0 1-.145-.451 2.005 2.005 0 0 1-.05-.464c0-.639.258-1.265.712-1.697a2.446 2.446 0 0 1 2.194-.658c.145.031.309.075.454.125.139.063.29.144.416.226.126.081.252.194.353.307.107.112.22.225.303.35.082.144.164.276.227.42z" fill="#4880FF" fill-rule="evenodd"/></svg>