<svg width="24" height="9" xmlns="http://www.w3.org/2000/svg">
  <path d="M23.703 2.414L20.957.237a.934.934 0 0 0-.219-.129.95.95 0 0 0-1.104.162c-.894.927-4.105 3.966-7.645 3.966-3.55 0-6.752-3.031-7.646-3.966A.897.897 0 0 0 3.75.004a.952.952 0 0 0-.63.177c-.027.016-.045.032-.073.048L.301 2.406c-.356.282-.401.758-.11 1.072.165.177.411.282.667.282.21 0 .42-.072.574-.193l1.98-1.564a.3.3 0 0 1 .384.016 18.226 18.226 0 0 0 1.797 1.459c.11.08.137.218.055.322L4.05 5.913c-.265.354-.155.83.237 1.064.146.08.31.129.484.129a.912.912 0 0 0 .72-.339l1.579-2.096a.297.297 0 0 1 .365-.072c1.122.564 2.235.927 3.33 1.088.137.016.237.12.237.242V8.21c0 .427.374.782.84.79h.027a.894.894 0 0 0 .602-.218.705.705 0 0 0 .265-.548v-2.29c0-.12.1-.225.246-.241 1.031-.121 2.099-.435 3.157-.927.128-.065.292-.024.365.089l1.45 2.12c.156.225.438.37.74.37a.94.94 0 0 0 .529-.16.714.714 0 0 0 .2-1.016l-1.468-2.153c-.073-.105-.046-.242.072-.314a17.838 17.838 0 0 0 2.163-1.71c.1-.096.274-.096.383-.015l1.989 1.58a.904.904 0 0 0 .575.193.914.914 0 0 0 .666-.282c.3-.298.246-.782-.1-1.064z" fill="#9B9B9B" fill-rule="evenodd"/>
</svg>
