<svg width="24" height="16" xmlns="http://www.w3.org/2000/svg">
  <g fill="#9B9B9B" fill-rule="evenodd">
    <path d="M23.85 6.764a.896.896 0 0 0-.619-.403.842.842 0 0 0-.691.236l-1.863 1.786c-.111.108-.277.098-.388-.01a18.813 18.813 0 0 0-1.79-1.727.318.318 0 0 1-.064-.393l1.531-2.473c.268-.432.166-1.011-.212-1.306a.81.81 0 0 0-.664-.147.932.932 0 0 0-.572.402l-1.521 2.464a.267.267 0 0 1-.37.088c-1.161-.706-2.314-1.158-3.44-1.344-.138-.02-.24-.148-.24-.295V.962c0-.52-.378-.952-.848-.961a.841.841 0 0 0-.636.265.934.934 0 0 0-.268.667v2.69c0 .147-.101.274-.24.294-1.051.157-2.14.56-3.228 1.178a.263.263 0 0 1-.369-.108l-1.43-2.542a.868.868 0 0 0-.552-.432.823.823 0 0 0-.674.118c-.396.265-.516.844-.267 1.285L5.9 6.018a.293.293 0 0 1-.074.382c-.719.59-1.42 1.257-2.093 1.993-.102.118-.268.118-.388.01l-1.89-1.806A.835.835 0 0 0 .81 6.36a.886.886 0 0 0-.609.324c-.304.383-.258.972.102 1.315l2.656 2.63C4.15 11.967 7.755 16 12.025 16c1.9 0 3.883-.785 5.894-2.326 1.614-1.237 2.794-2.611 3.357-3.269L23.692 8a.985.985 0 0 0 .157-1.236zm-6.254 4.81c-1.337 1.167-3.385 2.561-5.57 2.561-3.044 0-5.793-2.581-7.222-4.22a19.234 19.234 0 0 1 1.65-1.66c.213-.186.425-.363.637-.53.378-.294.766-.569 1.144-.795 1.097-.677 2.158-1.08 3.172-1.197.213-.02.415-.04.618-.04.23 0 .461.02.72.05 1.06.137 2.176.589 3.31 1.335.37.245.748.52 1.126.824a16.786 16.786 0 0 1 2.066 2.012 16.913 16.913 0 0 1-1.65 1.66z" fill-rule="nonzero"/>
    <path d="M13.532 10.173c0-.766.669-1.392 1.523-1.481-.566-.945-1.634-1.58-2.87-1.58-1.82 0-3.296 1.39-3.296 3.11s1.477 3.111 3.297 3.111c1.272 0 2.377-.676 2.925-1.67-.882-.07-1.579-.705-1.579-1.49z"/>
  </g>
</svg>
