<svg width="12" height="14" xmlns="http://www.w3.org/2000/svg"><g fill="none" fill-rule="evenodd"><path d="M7.714 3.5c0-.966-.767-1.749-1.714-1.749s-1.714.783-1.714 1.75c0 .965.767 1.749 1.714 1.749s1.714-.784 1.714-1.75zm1.715 0C9.429 5.434 7.894 7 6 7S2.571 5.435 2.571 3.5C2.571 1.567 4.106 0 6 0s3.429 1.567 3.429 3.5zM6.857 9.625H5.143c-1.598 0-2.94 1.115-3.32 2.624h8.355c-.381-1.509-1.723-2.624-3.32-2.624zM11.143 14H.857A.866.866 0 0 1 0 13.125c0-2.9 2.302-5.25 5.143-5.25h1.714c2.84 0 5.143 2.35 5.143 5.25a.866.866 0 0 1-.857.875z" fill="#386BE1" fill-rule="nonzero"/></g></svg>